PathFileType	4	(x/y/z)	A01_PREF_T0015.trc
DataRate	CameraRate	NumFrames	NumMarkers	Units	OrigDataRate	OrigDataStartFrame	OrigNumFrames
240	240	11	48	mm	240	37	288
Frame#	Time	TOP_HEAD			R_AC			L_AC			R_ASIS			L_ASIS			R_PSIS			L_PSIS			SACRAL			L_IC			R_IC			L_GT			R_GT			R_LAT_KNEE			R_MED_KNEE			L_MED_KNEE			L_LAT_KNEE			R_TOE			L_TOE			R_1ST_MET			L_1ST_MET			L_5TH_MET			R_5TH_MET			R_LAT_ANK			R_MED_ANK			L_MED_ANK			L_LAT_ANK			L_HEEL_SUP			R_HEEL_SUP			L_HEEL_LAT			R_HEEL_LAT			L_HEEL_MED			R_HEEL_MED			R_SHANK_PROX_POST			R_SHANK_PROX_ANT			R_SHANK_DIST_ANT			R_SHANK_DIST_POST			R_THIGH_PROX_POST			R_THIGH_PROX_ANT			R_THIGH_DIST_ANT			R_THIGH_DIST_POST			L_SHANK_PROX_ANT			L_SHANK_PROX_POST			L_SHANK_DIST_POST			L_SHANK_DIST_ANT			L_THIGH_PROX_ANT			L_THIGH_PROX_POST			L_THIGH_DIST_POST			L_THIGH_DIST_ANT			
		X1	Y1	Z1	X2	Y2	Z2	X3	Y3	Z3	X4	Y4	Z4	X5	Y5	Z5	X6	Y6	Z6	X7	Y7	Z7	X8	Y8	Z8	X9	Y9	Z9	X10	Y10	Z10	X11	Y11	Z11	X12	Y12	Z12	X13	Y13	Z13	X14	Y14	Z14	X15	Y15	Z15	X16	Y16	Z16	X17	Y17	Z17	X18	Y18	Z18	X19	Y19	Z19	X20	Y20	Z20	X21	Y21	Z21	X22	Y22	Z22	X23	Y23	Z23	X24	Y24	Z24	X25	Y25	Z25	X26	Y26	Z26	X27	Y27	Z27	X28	Y28	Z28	X29	Y29	Z29	X30	Y30	Z30	X31	Y31	Z31	X32	Y32	Z32	X33	Y33	Z33	X34	Y34	Z34	X35	Y35	Z35	X36	Y36	Z36	X37	Y37	Z37	X38	Y38	Z38	X39	Y39	Z39	X40	Y40	Z40	X41	Y41	Z41	X42	Y42	Z42	X43	Y43	Z43	X44	Y44	Z44	X45	Y45	Z45	X46	Y46	Z46	X47	Y47	Z47	X48	Y48	Z48	

37	0.15052	-399.73	1776.7	303.54	-573.31	1531.9	534.72	-632	1532.8	79.48	-612.1	1072.3	534.13	-583.34	1017.8	183.52	-817.76	1084.1	391.41	-801.75	1074.2	261.64	-827.39	1050.3	325.32	-616.53	1132.7	132.92	-636.29	1182.2	529.16	-635.42	934.68	142	-698.06	971.18	570.02	-800.6	577.96	521.25	NaN	NaN	NaN	-499.7	564.44	376.56	-515.07	569.83	217.88	-970.49	57.427	408.44	-262.1	97.643	278.88	-1039.7	62.729	360.77	-341.66	65.53	332.13	-365.54	53.846	201.89	-1067.4	59.955	496.01	-1085.5	199.89	483.6	-1064.2	204.32	383.92	-478.27	125.58	310.29	-504.62	114.49	242	-585.72	66.642	278.22	-1172	247.77	419.88	-569.58	39.748	246.74	-1186.5	224.32	451.35	-562.44	38.284	311.75	-1183.4	225.59	391.17	-973.5	484.15	505.45	-924.6	439.05	535.53	-960.71	374.3	517.41	-1002.6	406.38	497.18	-769.95	846.98	544.9	-698.81	852.5	558.02	-712.92	761.91	552.94	-779.96	757.91	537.52	-458.27	494.66	232.7	-512.02	486.16	219.2	-509.48	423.67	226.84	-458.63	438.49	238.74	-536.15	816.52	187.61	-603.61	802.53	166.17	-574.08	733.65	182.11	-512.41	747.39	201.1
38	0.1547	-394.32	1777.2	303.08	-567.7	1532.9	533.64	-625.78	1533	78.434	-606.29	1072.7	533.8	-577.8	1018.4	183.23	-812	1084.3	391.65	-796.16	1074.7	261.79	-821.66	1050.5	325.56	-610.68	1132.9	132.65	-630.41	1183.2	528.3	-630.21	935.22	141.85	-691.67	971.21	569.85	-790.62	577.02	522.33	NaN	NaN	NaN	-494.99	564.5	375.72	-510.48	569.8	217.07	-969.13	56.523	408.74	-261.59	96.151	278.67	-1037.4	64.679	360.94	-341.3	64.549	332.02	-365.32	52.947	201.74	-1065.6	62.137	495.95	-1079.8	202.82	484.07	-1058.2	207.01	384.48	-477.38	125.39	310.1	-503.78	114.38	241.87	-585.44	66.926	278.25	-1164.4	253.18	420.3	-569.41	39.986	246.76	-1179.7	230.11	451.68	-562.31	38.506	311.78	-1176.7	231.61	391.56	-964.14	485.31	506.12	-915.98	439.57	536.46	-952.79	375.33	518.17	-994.29	407.98	497.77	-762.5	846.03	545.11	-691.42	852.29	558.05	-704.63	761.55	553.29	-771.64	756.84	537.96	-454.32	494.16	231.94	-508.15	486.12	218.5	-506.13	423.61	226.24	-455.16	438	238.05	-531.14	816.61	186.78	-598.76	802.9	165.8	-569.44	733.89	181.59	-507.6	747.39	200.14
39	0.15889	-388.97	1777.7	302.66	-562.14	1534	532.58	-619.57	1533.3	77.411	-600.48	1073.2	533.47	-572.26	1018.9	182.95	-806.25	1084.4	391.83	-790.58	1075.1	261.89	-815.93	1050.8	325.76	-604.86	1133.2	132.37	-624.58	1184.2	527.46	-624.98	935.75	141.68	-685.27	971.26	569.69	-780.49	576.08	523.42	NaN	NaN	NaN	-490.37	564.55	374.88	-505.99	569.74	216.27	-967.63	55.555	409.07	-261.12	94.747	278.47	-1034.8	66.788	361.17	-340.97	63.626	331.92	-365.11	52.113	201.6	-1063.5	64.521	495.9	-1073.8	205.89	484.56	-1051.9	209.81	385.06	-476.53	125.23	309.92	-502.98	114.29	241.75	-585.17	67.198	278.28	-1156.6	258.7	420.76	-569.25	40.218	246.77	-1172.6	236.04	452.06	-562.18	38.722	311.8	-1169.6	237.76	392	-954.56	486.49	506.85	-907.14	440.11	537.41	-944.66	376.39	518.93	-985.74	409.62	498.42	-754.97	845.07	545.35	-683.97	852.1	558.1	-696.25	761.22	553.66	-763.23	755.77	538.44	-450.46	493.66	231.19	-504.36	486.06	217.81	-502.86	423.55	225.63	-451.77	437.51	237.36	-526.16	816.67	185.94	-593.93	803.26	165.42	-564.84	734.11	181.07	-502.84	747.37	199.18
40	0.16307	-383.68	1778.3	302.26	-556.66	1535.1	531.55	-613.37	1533.5	76.412	-594.67	1073.6	533.12	-566.72	1019.4	182.67	-800.51	1084.5	391.97	-784.99	1075.5	261.95	-810.19	1050.9	325.91	-599.06	1133.5	132.09	-618.79	1185.3	526.64	-619.74	936.28	141.49	-678.85	971.33	569.52	-770.2	575.14	524.52	NaN	NaN	NaN	-485.84	564.59	374.04	-501.6	569.67	215.47	-965.96	54.528	409.44	-260.67	93.437	278.29	-1032	69.046	361.44	-340.66	62.766	331.84	-364.92	51.349	201.47	-1061.3	67.11	495.88	-1067.7	209.08	485.06	-1045.4	212.72	385.65	-475.71	125.08	309.74	-502.22	114.22	241.63	-584.91	67.457	278.31	-1148.5	264.32	421.28	-569.09	40.442	246.78	-1165.2	242.08	452.5	-562.05	38.933	311.84	-1162.3	244.01	392.49	-944.78	487.69	507.63	-898.1	440.68	538.39	-936.31	377.49	519.7	-976.99	411.3	499.1	-747.38	844.11	545.61	-676.46	851.92	558.17	-687.79	760.9	554.05	-754.72	754.71	538.97	-446.69	493.16	230.44	-500.66	485.99	217.13	-499.67	423.48	225.04	-448.47	437.02	236.68	-521.2	816.72	185.12	-589.13	803.61	165.03	-560.27	734.33	180.55	-498.11	747.32	198.23
41	0.16725	-378.45	1778.9	301.9	-551.23	1536.2	530.55	-607.17	1533.8	75.436	-588.87	1074.1	532.78	-561.18	1020	182.39	-794.79	1084.5	392.07	-779.41	1075.9	261.96	-804.46	1051.1	326.02	-593.28	1133.8	131.8	-613.07	1186.4	525.85	-614.48	936.8	141.29	-672.43	971.41	569.34	-759.78	574.22	525.63	NaN	NaN	NaN	-481.41	564.61	373.23	-497.31	569.59	214.69	-964.12	53.448	409.84	-260.26	92.227	278.13	-1028.9	71.445	361.78	-340.36	61.975	331.76	-364.74	50.655	201.35	-1058.7	69.901	495.89	-1061.4	212.4	485.59	-1038.7	215.73	386.26	-474.92	124.97	309.58	-501.5	114.17	241.52	-584.67	67.702	278.34	-1140.1	270.02	421.83	-568.94	40.658	246.79	-1157.5	248.21	452.97	-561.94	39.137	311.87	-1154.6	250.33	393.01	-934.81	488.91	508.46	-888.86	441.26	539.38	-927.75	378.62	520.47	-968.05	413.02	499.82	-739.72	843.16	545.9	-668.91	851.76	558.25	-679.25	760.61	554.47	-746.13	753.66	539.52	-443.01	492.66	229.71	-497.04	485.92	216.46	-496.56	423.41	224.45	-445.25	436.53	236.02	-516.26	816.74	184.3	-584.35	803.96	164.64	-555.74	734.54	180.02	-493.43	747.26	197.3
42	0.17143	-373.28	1779.5	301.57	-545.88	1537.3	529.58	-600.99	1534	74.487	-583.07	1074.6	532.43	-555.63	1020.5	182.12	-789.08	1084.5	392.12	-773.84	1076.3	261.93	-798.74	1051.2	326.07	-587.5	1134.1	131.51	-607.4	1187.4	525.08	-609.21	937.32	141.07	-666	971.5	569.17	-749.24	573.32	526.73	NaN	NaN	NaN	-477.07	564.62	372.44	-493.12	569.49	213.93	-962.08	52.325	410.28	-259.88	91.124	277.98	-1025.4	73.972	362.17	-340.09	61.255	331.68	-364.58	50.034	201.24	-1055.9	72.888	495.93	-1054.8	215.82	486.12	-1031.9	218.84	386.86	-474.17	124.87	309.42	-500.82	114.14	241.42	-584.44	67.934	278.37	-1131.5	275.78	422.42	-568.8	40.864	246.8	-1149.6	254.41	453.49	-561.82	39.333	311.9	-1146.7	256.7	393.55	-924.65	490.16	509.32	-879.43	441.87	540.38	-919	379.79	521.24	-958.92	414.78	500.58	-732.01	842.21	546.21	-661.31	851.62	558.35	-670.64	760.35	554.9	-737.47	752.62	540.11	-439.42	492.16	228.99	-493.52	485.84	215.81	-493.52	423.34	223.89	-442.11	436.04	235.38	-511.34	816.75	183.51	-579.58	804.31	164.24	-551.23	734.74	179.5	-488.77	747.18	196.39
43	0.17561	-368.17	1780.1	301.27	-540.6	1538.4	528.65	-594.82	1534.3	73.563	-577.29	1075.2	532.08	-550.07	1021	181.85	-783.38	1084.5	392.12	-768.27	1076.7	261.85	-793.01	1051.3	326.07	-581.73	1134.4	131.22	-601.81	1188.5	524.35	-603.92	937.82	140.83	-659.57	971.6	568.99	-738.58	572.44	527.82	NaN	NaN	NaN	-472.84	564.62	371.67	-489.01	569.38	213.2	-959.82	51.168	410.76	-259.53	90.128	277.85	-1021.7	76.614	362.62	-339.85	60.608	331.61	-364.43	49.485	201.14	-1052.7	76.062	496	-1048.1	219.35	486.65	-1024.8	222.04	387.47	-473.45	124.8	309.27	-500.18	114.13	241.32	-584.23	68.153	278.4	-1122.6	281.57	423.04	-568.67	41.061	246.8	-1141.5	260.65	454.04	-561.71	39.521	311.93	-1138.5	263.08	394.11	-914.33	491.42	510.22	-869.83	442.5	541.37	-910.06	381	521.99	-949.62	416.56	501.36	-724.24	841.27	546.55	-653.68	851.49	558.46	-661.98	760.11	555.35	-728.74	751.61	540.73	-435.91	491.67	228.3	-490.07	485.76	215.19	-490.56	423.28	223.34	-439.04	435.57	234.77	-506.44	816.76	182.74	-574.82	804.65	163.84	-546.75	734.93	178.98	-484.15	747.08	195.52
44	0.17979	-363.11	1780.7	301.01	-535.39	1539.5	527.75	-588.67	1534.6	72.667	-571.52	1075.7	531.73	-544.51	1021.5	181.59	-777.7	1084.4	392.08	-762.7	1077	261.73	-787.3	1051.3	326.03	-575.96	1134.6	130.92	-596.3	1189.5	523.66	-598.61	938.32	140.58	-653.13	971.7	568.82	-727.84	571.6	528.9	NaN	NaN	NaN	-468.71	564.61	370.93	-485	569.27	212.49	-957.32	49.993	411.27	-259.22	89.24	277.73	-1017.6	79.357	363.12	-339.62	60.034	331.55	-364.29	49.006	201.05	-1049.2	79.41	496.12	-1041.1	222.97	487.18	-1017.6	225.31	388.07	-472.77	124.74	309.13	-499.59	114.14	241.23	-584.03	68.361	278.42	-1113.5	287.36	423.67	-568.56	41.247	246.81	-1133.1	266.9	454.61	-561.61	39.7	311.95	-1130	269.44	394.68	-903.84	492.7	511.14	-860.06	443.17	542.36	-900.94	382.24	522.74	-940.15	418.37	502.16	-716.42	840.35	546.9	-646.01	851.39	558.59	-653.26	759.91	555.82	-719.95	750.62	541.37	-432.49	491.18	227.64	-486.71	485.68	214.59	-487.68	423.21	222.81	-436.06	435.1	234.18	-501.55	816.75	182	-570.07	804.98	163.45	-542.29	735.12	178.48	-479.55	746.98	194.68
45	0.18397	-358.11	1781.4	300.79	-530.26	1540.6	526.9	-582.54	1534.8	71.799	-565.77	1076.2	531.39	-538.94	1022	181.33	-772.04	1084.3	392	-757.15	1077.3	261.57	-781.59	1051.4	325.93	-570.19	1134.9	130.62	-590.86	1190.5	523.01	-593.28	938.82	140.32	-646.69	971.81	568.65	-717	570.79	529.96	NaN	NaN	NaN	-464.69	564.59	370.23	-481.08	569.15	211.83	-954.55	48.817	411.82	-258.94	88.457	277.62	-1013.2	82.184	363.67	-339.42	59.532	331.49	-364.17	48.593	200.97	-1045.4	82.915	496.28	-1033.9	226.66	487.7	-1010.2	228.65	388.65	-472.12	124.71	309	-499.04	114.17	241.15	-583.85	68.56	278.45	-1104.3	293.12	424.31	-568.45	41.424	246.81	-1124.4	273.12	455.2	-561.51	39.872	311.98	-1121.4	275.73	395.24	-893.22	494	512.07	-850.14	443.85	543.33	-891.65	383.52	523.46	-930.52	420.2	502.97	-708.56	839.46	547.27	-638.3	851.32	558.74	-644.5	759.75	556.29	-711.11	749.66	542.03	-429.16	490.7	227.01	-483.44	485.6	214.02	-484.87	423.16	222.31	-433.15	434.65	233.62	-496.68	816.74	181.3	-565.34	805.32	163.06	-537.84	735.32	177.99	-474.98	746.87	193.87
46	0.18815	-353.16	1782.1	300.6	-525.2	1541.6	526.1	-576.44	1535.1	70.96	-560.05	1076.8	531.05	-533.37	1022.5	181.07	-766.4	1084.1	391.88	-751.6	1077.6	261.37	-775.89	1051.3	325.79	-564.42	1135.2	130.32	-585.52	1191.5	522.39	-587.93	939.3	140.05	-640.25	971.93	568.48	-706.09	570.04	531	NaN	NaN	NaN	-460.78	564.56	369.56	-477.25	569.03	211.19	-951.47	47.661	412.4	-258.69	87.774	277.52	-1008.4	85.076	364.28	-339.24	59.096	331.44	-364.07	48.243	200.89	-1041.1	86.558	496.49	-1026.5	230.42	488.21	-1002.6	232.03	389.22	-471.5	124.7	308.88	-498.54	114.21	241.07	-583.67	68.749	278.47	-1094.9	298.82	424.93	-568.36	41.591	246.81	-1115.6	279.28	455.79	-561.41	40.037	312	-1112.5	281.93	395.78	-882.48	495.32	513.02	-840.07	444.57	544.29	-882.22	384.83	524.18	-920.75	422.05	503.8	-700.65	838.59	547.65	-630.58	851.27	558.89	-635.7	759.63	556.77	-702.21	748.75	542.7	-425.91	490.22	226.41	-480.24	485.52	213.49	-482.14	423.1	221.83	-430.32	434.2	233.1	-491.83	816.73	180.63	-560.6	805.66	162.67	-533.41	735.51	177.51	-470.43	746.75	193.11
47	0.19233	-348.25	1782.7	300.45	-520.21	1542.6	525.34	-570.36	1535.3	70.153	-554.36	1077.3	530.73	-527.79	1022.9	180.83	-760.78	1083.9	391.72	-746.06	1078	261.13	-770.2	1051.3	325.6	-558.63	1135.5	130.02	-580.26	1192.4	521.81	-582.56	939.79	139.78	-633.82	972.04	568.31	-695.12	569.35	532.01	NaN	NaN	NaN	-456.97	564.52	368.92	-473.52	568.9	210.6	-948.03	46.548	413.02	-258.47	87.183	277.43	-1003.2	88.016	364.94	-339.08	58.724	331.39	-363.97	47.95	200.82	-1036.4	90.312	496.74	-1018.9	234.21	488.7	-994.9	235.45	389.76	-470.91	124.71	308.76	-498.07	114.28	241	-583.52	68.932	278.49	-1085.4	304.42	425.54	-568.28	41.749	246.81	-1106.7	285.33	456.36	-561.32	40.196	312.02	-1103.4	287.98	396.3	-871.62	496.65	513.96	-829.88	445.32	545.22	-872.65	386.16	524.88	-910.83	423.92	504.62	-692.71	837.75	548.04	-622.82	851.26	559.05	-626.87	759.55	557.26	-693.28	747.88	543.38	-422.75	489.76	225.85	-477.13	485.45	212.99	-479.48	423.06	221.39	-427.57	433.77	232.6	-486.99	816.72	180	-555.88	806	162.3	-528.99	735.71	177.04	-465.9	746.64	192.4
